<svg xmlns="http://www.w3.org/2000/svg" viewBox="0 0 864 864">
<path fill="currentColor" d="M54.6,471.4c25.3,52.4,73.7,92.9,129,111.7c33.7,11.5,69.5,15.5,104.9,19.4c10.2,1.1,21,2.2,30.4-2.1s5.9-16.4,11.8-25
	c-10.8,44,23.7,93.4,68.7,98.6c2.7-29.6,2-59.5-2.2-88.9c2.4,7.3,4.8,14.7,7.2,22c2.9,8.7,99.6-16.1,109.8-19.3
	c36.8-11.4,72.1-27.9,103.5-50.2c63.2-44.8,109.9-114.4,117.8-192.5c1.4-13.4,1.5-27,0.4-40.4c29.1,1.8,65-0.1,78.2-26.1
	c10.8-21.4,0.3-49.9,13.9-69.6c-38.7-4.9-79.3,16.4-97.3,51c-18.5-38.6-58.1-66.2-100.7-70.1c14.7,14.3,4.1,38.6,4.4,59.1
	c0.4,34.2,41.4,61,72.9,47.6c-1.9,0.8-8.3,25.9-10.3,29.6c-5.2,9.8-12,18.8-19.9,26.7c-15.8,15.8-36.1,27.2-58,31.9
	c-51.6,11-100.2-19.5-137.8-51.5c-29.4-25-55.8-53.5-87.4-75.7c-47.2-33.1-105.1-50.8-162.8-49.6c-56.7,1.1-114.8,21.7-152.5,64.2
	c-42.9,48.4-53.6,121.3-31.3,182C49.5,460.1,51.9,465.8,54.6,471.4z"/>
</svg>
